<?xml version="1.0" standalone="no"?><svg xmlns="http://www.w3.org/2000/svg" viewBox="0 0 1440 320"><path fill="#8979f2" fill-opacity="1" d="M0,96L6.2,106.7C12.3,117,25,139,37,165.3C49.2,192,62,224,74,229.3C86.2,235,98,213,111,170.7C123.1,128,135,64,148,58.7C160,53,172,107,185,122.7C196.9,139,209,117,222,122.7C233.8,128,246,160,258,160C270.8,160,283,128,295,138.7C307.7,149,320,203,332,213.3C344.6,224,357,192,369,186.7C381.5,181,394,203,406,197.3C418.5,192,431,160,443,170.7C455.4,181,468,235,480,229.3C492.3,224,505,160,517,149.3C529.2,139,542,181,554,213.3C566.2,245,578,267,591,277.3C603.1,288,615,288,628,256C640,224,652,160,665,122.7C676.9,85,689,75,702,106.7C713.8,139,726,213,738,245.3C750.8,277,763,267,775,266.7C787.7,267,800,277,812,277.3C824.6,277,837,267,849,224C861.5,181,874,107,886,90.7C898.5,75,911,117,923,128C935.4,139,948,117,960,112C972.3,107,985,117,997,138.7C1009.2,160,1022,192,1034,208C1046.2,224,1058,224,1071,234.7C1083.1,245,1095,267,1108,256C1120,245,1132,203,1145,202.7C1156.9,203,1169,245,1182,266.7C1193.8,288,1206,288,1218,250.7C1230.8,213,1243,139,1255,117.3C1267.7,96,1280,128,1292,133.3C1304.6,139,1317,117,1329,138.7C1341.5,160,1354,224,1366,250.7C1378.5,277,1391,267,1403,224C1415.4,181,1428,107,1434,69.3L1440,32L1440,320L1433.8,320C1427.7,320,1415,320,1403,320C1390.8,320,1378,320,1366,320C1353.8,320,1342,320,1329,320C1316.9,320,1305,320,1292,320C1280,320,1268,320,1255,320C1243.1,320,1231,320,1218,320C1206.2,320,1194,320,1182,320C1169.2,320,1157,320,1145,320C1132.3,320,1120,320,1108,320C1095.4,320,1083,320,1071,320C1058.5,320,1046,320,1034,320C1021.5,320,1009,320,997,320C984.6,320,972,320,960,320C947.7,320,935,320,923,320C910.8,320,898,320,886,320C873.8,320,862,320,849,320C836.9,320,825,320,812,320C800,320,788,320,775,320C763.1,320,751,320,738,320C726.2,320,714,320,702,320C689.2,320,677,320,665,320C652.3,320,640,320,628,320C615.4,320,603,320,591,320C578.5,320,566,320,554,320C541.5,320,529,320,517,320C504.6,320,492,320,480,320C467.7,320,455,320,443,320C430.8,320,418,320,406,320C393.8,320,382,320,369,320C356.9,320,345,320,332,320C320,320,308,320,295,320C283.1,320,271,320,258,320C246.2,320,234,320,222,320C209.2,320,197,320,185,320C172.3,320,160,320,148,320C135.4,320,123,320,111,320C98.5,320,86,320,74,320C61.5,320,49,320,37,320C24.6,320,12,320,6,320L0,320Z"></path></svg>