<?xml version="1.0" standalone="no"?><svg xmlns="http://www.w3.org/2000/svg" viewBox="0 0 1440 320"><path fill="#8979f2" fill-opacity="1" d="M0,224L6.2,197.3C12.3,171,25,117,37,112C49.2,107,62,149,74,149.3C86.2,149,98,107,111,117.3C123.1,128,135,192,148,202.7C160,213,172,171,185,160C196.9,149,209,171,222,165.3C233.8,160,246,128,258,138.7C270.8,149,283,203,295,234.7C307.7,267,320,277,332,272C344.6,267,357,245,369,245.3C381.5,245,394,267,406,272C418.5,277,431,267,443,224C455.4,181,468,107,480,101.3C492.3,96,505,160,517,208C529.2,256,542,288,554,293.3C566.2,299,578,277,591,272C603.1,267,615,277,628,250.7C640,224,652,160,665,138.7C676.9,117,689,139,702,160C713.8,181,726,203,738,213.3C750.8,224,763,224,775,229.3C787.7,235,800,245,812,250.7C824.6,256,837,256,849,229.3C861.5,203,874,149,886,106.7C898.5,64,911,32,923,37.3C935.4,43,948,85,960,133.3C972.3,181,985,235,997,224C1009.2,213,1022,139,1034,122.7C1046.2,107,1058,149,1071,181.3C1083.1,213,1095,235,1108,202.7C1120,171,1132,85,1145,74.7C1156.9,64,1169,128,1182,144C1193.8,160,1206,128,1218,122.7C1230.8,117,1243,139,1255,128C1267.7,117,1280,75,1292,58.7C1304.6,43,1317,53,1329,85.3C1341.5,117,1354,171,1366,160C1378.5,149,1391,75,1403,58.7C1415.4,43,1428,85,1434,106.7L1440,128L1440,320L1433.8,320C1427.7,320,1415,320,1403,320C1390.8,320,1378,320,1366,320C1353.8,320,1342,320,1329,320C1316.9,320,1305,320,1292,320C1280,320,1268,320,1255,320C1243.1,320,1231,320,1218,320C1206.2,320,1194,320,1182,320C1169.2,320,1157,320,1145,320C1132.3,320,1120,320,1108,320C1095.4,320,1083,320,1071,320C1058.5,320,1046,320,1034,320C1021.5,320,1009,320,997,320C984.6,320,972,320,960,320C947.7,320,935,320,923,320C910.8,320,898,320,886,320C873.8,320,862,320,849,320C836.9,320,825,320,812,320C800,320,788,320,775,320C763.1,320,751,320,738,320C726.2,320,714,320,702,320C689.2,320,677,320,665,320C652.3,320,640,320,628,320C615.4,320,603,320,591,320C578.5,320,566,320,554,320C541.5,320,529,320,517,320C504.6,320,492,320,480,320C467.7,320,455,320,443,320C430.8,320,418,320,406,320C393.8,320,382,320,369,320C356.9,320,345,320,332,320C320,320,308,320,295,320C283.1,320,271,320,258,320C246.2,320,234,320,222,320C209.2,320,197,320,185,320C172.3,320,160,320,148,320C135.4,320,123,320,111,320C98.5,320,86,320,74,320C61.5,320,49,320,37,320C24.6,320,12,320,6,320L0,320Z"></path></svg>